<svg t="1573102687549" class="icon" viewBox="0 0 1281 1024" version="1.1" xmlns="http://www.w3.org/2000/svg" p-id="10761" width="200" height="200"><path d="M1154.576312 588.914145A18.628778 18.628778 0 0 1 1142.202453 611.894171L207.772065 910.090597a18.628778 18.628778 0 0 1-23.387955-12.645813L0.815859 322.128287A18.900731 18.900731 0 0 1 13.597648 299.148261L947.620106 0.951835a18.492802 18.492802 0 0 1 23.387955 12.645813z" fill="#FFDA24" p-id="10762"></path><path d="M31.954473 419.487448l63.501018 199.613477 972.095873-303.363533-63.636994-199.613476L31.954473 419.487448z" fill="#122C3D" p-id="10763"></path><path d="M143.727142 286.502449m18.628778 0l980.934344 0q18.628778 0 18.628778 18.628778l0 604.415464q0 18.628778-18.628778 18.628778l-980.934344 0q-18.628778 0-18.628778-18.628778l0-604.415464q0-18.628778 18.628778-18.628778Z" fill="#98D24D" p-id="10764"></path><path d="M243.805833 751.677995h-17.540966v19.71659h17.540966v49.767392h19.71659V736.992535h-19.71659z m91.784126 69.483982h19.71659v-69.483982h-19.71659z m59.693675-84.169442h-19.852566v84.169442h19.852566v-49.767392h24.067838v-19.71659h-24.067838z m-112.86048 84.169442h19.852566v-49.767392h20.532449v-19.71659h-40.792944z m346.604054-69.483982h-35.081933v69.483982h19.852567v-49.767392h15.229366v49.767392h19.852566V736.992535h-19.852566zM720.675357 821.161977h19.852566v-69.483982H720.675357z m138.152106-84.169442h-19.71659v84.169442h19.71659v-49.767392h24.067837v-19.71659h-24.067837z m-190.367075 84.169442h19.71659v-49.767392h20.668425v-19.71659h-40.792945z m282.151201-69.483982h-35.761815v69.483982h19.71659v-49.767392h15.365342v49.767392h19.71659V736.992535h-19.71659z m91.784125 0v69.483982h19.71659v-69.483982z m-53.846687 69.483982h19.852567v-49.767392h20.532449v-19.71659h-40.792945z m-190.367075-69.483982h-35.625838v69.483982h19.716589v-49.767392h15.365343v49.767392h19.71659V736.992535h-19.71659z m-257.267505 69.483982h19.71659v-49.767392h20.668425v-19.71659h-40.792944z m-66.628476-84.169442h-19.71659v84.169442h19.71659v-49.767392h36.033768v49.767392H530.308282v-69.483982h-55.750358z" fill="#83BA36" p-id="10765"></path><path d="M465.991405 449.538251l-32.226426 29.642873-159.772367 136.656365L257.267505 639.089467l289.086001 289.086002h398.275118l-478.637219-478.637218z" fill="#84B94B" p-id="10766"></path><path d="M470.750582 625.491819a18.492802 18.492802 0 0 1-18.492801 18.628778H270.865153A18.628778 18.628778 0 0 1 252.236375 625.491819V462.32004a18.628778 18.628778 0 0 1 18.628778-18.492801h181.392628A18.492802 18.492802 0 0 1 470.750582 462.32004z" fill="#FFDA24" p-id="10767"></path><path d="M762.556114 751.677995v69.483982h19.716589v-49.767392H788.663598l-20.396472-19.71659z m-288.270143-14.68546h-19.71659v84.169442h19.71659v-49.767392h36.033768v49.767392H530.308282v-69.483982h-55.750358z m-79.002337 0h-19.852566v20.260496l19.852566 19.71659v-5.575036h24.067838v-19.71659h-24.067838zM720.675357 821.161977h19.852566v-69.483982H720.675357z m76.826713-40.792944v40.792944h19.716589V800.901482z m-256.723599 40.792944h19.71659v-49.767392h20.668425v-19.71659h-40.792945z m126.866058 0h19.71659v-49.767392h20.668425v-19.71659h-40.792945z m-38.753298-69.483982h-34.945956v69.483982h19.852567v-49.767392h15.229366v49.767392h19.852566V736.992535h-19.852566z" fill="#72A537" p-id="10768"></path></svg>