<svg t="1573102630313" class="icon" viewBox="0 0 1273 1024" version="1.1" xmlns="http://www.w3.org/2000/svg" p-id="10635" width="200" height="200"><path d="M636.971809 0v1.595693L636.826746 0 332.774614 353.663692h608.249327L636.971809 0z" fill="#AFE563" p-id="10636"></path><path d="M941.023941 353.663692H332.774614L636.826746 1022.694433v1.160504l304.197195-670.191245z" fill="#98D24D" p-id="10637"></path><path d="M332.774614 353.663692H0v0.145063l636.681683 669.901119v0.290126l0.145063-0.145063v-1.160504L332.774614 353.663692z" fill="#AFE563" p-id="10638"></path><path d="M1273.508429 353.663692H941.023941L636.826746 1023.854937l0.145063 0.145063v-0.290126l636.53662-669.901119v-0.145063z" fill="#709920" p-id="10639"></path><path d="M636.971809 1.595693V0zM966.990225 0H637.116872l304.632384 353.518629h331.759173z" fill="#78A82C" p-id="10640"></path><path d="M306.663267 0.145063L0 353.663692h332.774614L636.681683 0.145063H306.663267z" fill="#98D24D" p-id="10641"></path></svg>