<svg t="1573102525687" class="icon" viewBox="0 0 1324 1024" version="1.1" xmlns="http://www.w3.org/2000/svg" p-id="10244" width="200" height="200"><path d="M1249.262927 713.085081L202.477912 921.886587 75.367136 284.37213 1121.98877 75.570624l127.274157 637.514457z" fill="#98D24D" p-id="10245"></path><path d="M1160.220032 0.415152L10.83146 230.129485A13.233898 13.233898 0 0 0 0.211665 245.487342l147.043314 740.771541a13.39728 13.39728 0 0 0 16.338146 10.783176l1150.205479-229.714333A13.070517 13.070517 0 0 0 1323.601492 751.969869L1176.558178 11.034947A13.233898 13.233898 0 0 0 1160.220032 0.415152z m-140.181293 95.578154v4.4113a96.721824 96.721824 0 0 0 113.550115 75.808997c2.614103 0 5.064825-1.307052 7.515547-1.960577l91.330236 457.468088-6.862021 0.980289a96.721824 96.721824 0 0 0-77.442812 100.642979L291.030664 904.24139a96.558443 96.558443 0 0 0-104.727516-63.882151l-91.166855-457.468089a96.558443 96.558443 0 0 0 70.417409-112.406444c0-1.307052 0-2.614103-0.980288-4.084537z" fill="#83BA36" p-id="10246"></path><path d="M870.21794 462.948066C898.809696 608.520947 829.699338 745.271229 715.005553 768.308015s-231.511529-76.789286-260.430048-222.525549S494.930726 263.459303 609.624511 240.585899s231.511529 76.625905 260.593429 222.362167z" fill="#83BA36" p-id="10247"></path><path d="M646.712103 533.202094a90.67671 90.67671 0 0 1-10.783177-2.777485c-50.975016-12.743754-88.552751-20.912827-98.028876-65.352584-11.926847-59.960996 27.93823-93.94434 66.332873-117.307888l4.411299-2.614104-6.371877-34.310106h3.431011l6.862021 32.676292a121.882569 121.882569 0 0 1 27.121323-8.005692l9.476124-1.960578-6.371877-31.532621h3.921156l7.025402 31.205859a147.043314 147.043314 0 0 1 80.873823 18.462105 42.642561 42.642561 0 0 1 16.338146 26.631178 37.741117 37.741117 0 0 1-29.898807 45.91019 40.845365 40.845365 0 0 1-47.870768-33.983344 36.107303 36.107303 0 0 1 32.676292-42.315798 85.121741 85.121741 0 0 0-52.118686-10.293032l23.200168 116.490981c41.008746 9.639506 113.223352 16.338146 124.823435 74.175183 9.476125 47.544005-18.952249 105.21766-84.304833 128.417828l9.149362 45.746808-3.921156 0.816908-8.98598-45.256665a192.626741 192.626741 0 0 1-24.833982 6.208496c-5.55497 1.14367-9.966269 1.633815-12.090228 1.960577l9.639506 44.439757-3.43101 0.816908-8.985981-44.929902a126.130487 126.130487 0 0 1-46.236953 0c-39.701695-7.678929-65.352584-28.428374-71.070935-55.222933A46.400335 46.400335 0 0 1 592.796221 555.912117a42.969324 42.969324 0 0 1 53.262356 37.741117c6.69864 33.656581-16.338146 50.158108-39.701695 55.059552h-5.228207a86.428792 86.428792 0 0 0 71.397698 13.887424zM628.57676 441.545095l-18.462105-92.310525a49.014438 49.014438 0 0 0-26.467796 49.014438A57.02013 57.02013 0 0 0 628.57676 441.545095z m15.194476-103.583846a127.437539 127.437539 0 0 0-30.388951 9.639506l18.952249 94.597865 40.518602 10.293032-23.036786-115.674073z m47.380624 205.86064c-12.416991-3.757774-28.755137-7.188784-40.681984-10.129651l25.650889 128.091065a126.293869 126.293869 0 0 0 13.887424-2.450722 84.468215 84.468215 0 0 0 22.873405-6.69864z m25.487507 107.668382A52.445449 52.445449 0 0 0 745.557886 588.588409c-6.208495-31.042477-32.676292-36.107303-50.32149-42.969324zM364.715702 567.022056a96.558443 96.558443 0 1 1-114.367022-75.808997 96.558443 96.558443 0 0 1 114.367022 75.808997zM1133.588854 413.606865a96.558443 96.558443 0 1 1-114.367022-75.808998 96.558443 96.558443 0 0 1 114.367022 75.808998z" fill="#FFFFFF" p-id="10248"></path><path d="M1204.006263 958.157272H136.635184V308.062442h1067.371079v650.09483z" fill="#98D24D" p-id="10249"></path><path d="M1256.778475 242.219713H84.026354a13.233898 13.233898 0 0 0-13.233898 13.233899v755.31249a13.233898 13.233898 0 0 0 13.233898 13.233898h1172.752121a13.070517 13.070517 0 0 0 13.070516-13.233898V255.453612a13.070517 13.070517 0 0 0-13.070516-13.233899z m-156.846202 65.352584v4.4113a96.558443 96.558443 0 0 0 96.395061 96.885206h7.678929v466.290687h-7.678929a96.721824 96.721824 0 0 0-95.741535 83.487926H226.82175a96.558443 96.558443 0 0 0-90.186566-83.161163V408.868803a96.558443 96.558443 0 0 0 91.166855-96.395062v-4.411299z" fill="#83BA36" p-id="10250"></path><path d="M881.164498 638.583136c0 148.677129-94.761247 269.089265-212.395898 269.089264S457.679753 787.260264 457.679753 638.583136 552.277619 369.657252 670.075651 369.657252 881.164498 490.559533 881.164498 638.583136z" fill="#83BA36" p-id="10251"></path><path d="M648.345917 663.907262a96.23168 96.23168 0 0 1-10.12965-4.901444C590.672262 636.622558 555.708629 621.264701 555.708629 576.334799c0-61.104666 45.746809-86.592174 87.899226-102.113412l4.901444-1.633815v-35.617158h3.43101v34.636869a130.705168 130.705168 0 0 1 28.264993-2.614103h9.639506v-32.676292h3.921155v32.676292a145.899644 145.899644 0 0 1 75.645616 33.983344 42.47918 42.47918 0 0 1 11.436702 29.408662A37.741117 37.741117 0 0 1 742.453638 572.250263 41.008746 41.008746 0 0 1 702.751943 528.790794a36.270684 36.270684 0 0 1 40.19184-35.127014 86.102029 86.102029 0 0 0-49.014438-20.259301v118.778322c38.231262 17.645198 107.831764 38.721406 107.831763 98.028876 0 49.014438-39.21155 99.499309-107.831763 109.62896v46.563716h-4.247918V799.350492a196.057752 196.057752 0 0 1-25.487508 1.307052h-12.416991v45.420046h-3.431011v-45.746809a124.660054 124.660054 0 0 1-45.420046-8.822599c-37.250973-15.357857-58.817326-40.845365-58.817325-68.130069a46.563716 46.563716 0 0 1 47.05386-48.034149 42.969324 42.969324 0 0 1 44.76652 47.544005c0 34.310107-24.997363 46.236953-49.014438 46.236953h-5.228207a86.918937 86.918937 0 0 0 67.313162 27.774848z m0-92.800669v-94.107722a49.014438 49.014438 0 0 0-35.617158 43.459469 57.02013 57.02013 0 0 0 35.617158 50.648253z m35.127014-98.028877a122.536095 122.536095 0 0 0-31.696003 3.431011V572.250263l37.904499 17.97196v-117.634651z m6.208496 211.088847c-11.436702-6.208495-26.794559-12.743754-37.904499-17.971961v130.705168a121.229043 121.229043 0 0 0 14.214187 0 90.513329 90.513329 0 0 0 23.690312-2.123959z m3.921155 110.445867A52.60883 52.60883 0 0 0 735.428235 736.938775c0-31.696003-24.6706-41.825654-41.008746-51.955305zM365.042465 641.850765a96.721824 96.721824 0 1 1-96.558443-96.558443 96.721824 96.721824 0 0 1 96.558443 96.558443zM1149.110092 641.850765a96.721824 96.721824 0 1 1-96.721824-96.558443 96.721824 96.721824 0 0 1 96.721824 96.558443z" fill="#FFFFFF" p-id="10252"></path><path d="M70.13893 218.202639l-13.887424 2.777484a13.887424 13.887424 0 0 0-6.045114 11.273321v262.390625l20.586064 103.583846v-343.101066a13.233898 13.233898 0 0 1 13.233898-13.233899h1138.442014l-4.738062-24.017074z m1199.710061 261.410336v296.53735l43.949613-8.822599a12.25361 12.25361 0 0 0 8.822599-6.862021v-16.338146z" fill="#7DB14A" p-id="10253"></path><path d="M56.251506 221.143505a13.560661 13.560661 0 0 0-6.045114 11.109939v262.390625l20.586064 103.583846v-343.101066a13.233898 13.233898 0 0 1 13.233898-13.233899h203.083155l119.921992-24.017074H70.302311z m1094.655782-2.940866l4.738063 24.017074h67.14978l-4.738062-24.017074z m119.268466 261.410336v296.53735l43.949613-8.822599h2.777485a12.090228 12.090228 0 0 0 5.718351-5.718351v-16.338146z" fill="#6C9E37" p-id="10254"></path></svg>