<svg t="1573102586177" class="icon" viewBox="0 0 1058 1024" version="1.1" xmlns="http://www.w3.org/2000/svg" p-id="10506" width="200" height="200"><path d="M1058.198848 306.086244a18.86833 18.86833 0 0 0-18.7373-18.7373H18.7373A18.86833 18.86833 0 0 0 0 306.086244v349.719258h1058.198848z" fill="#98D24D" p-id="10507"></path><path d="M0 655.805502v349.588228a18.7373 18.7373 0 0 0 18.7373 18.60627h1020.724248a18.7373 18.7373 0 0 0 18.7373-18.60627V655.805502z" fill="#78A82C" p-id="10508"></path><path d="M378.938964 655.805502a35.116059 35.116059 0 1 1-35.116059-35.116059 35.116059 35.116059 0 0 1 35.116059 35.116059zM378.938964 545.871273A35.116059 35.116059 0 1 1 343.822905 511.017274a35.116059 35.116059 0 0 1 35.116059 34.853999zM378.938964 765.870761a35.116059 35.116059 0 1 1-35.116059-35.116059 35.116059 35.116059 0 0 1 35.116059 35.116059zM266.122073 570.373896a35.116059 35.116059 0 1 1-47.957006 13.103007 35.247089 35.247089 0 0 1 47.957006-13.103007zM456.639795 680.439155a35.116059 35.116059 0 1 1-47.957005 13.103008 35.116059 35.116059 0 0 1 47.957005-13.103008zM231.006014 680.439155a35.116059 35.116059 0 1 1-13.103007 47.957006 35.116059 35.116059 0 0 1 13.103007-47.957006zM421.523736 570.373896a35.116059 35.116059 0 1 1-13.103007 48.088036 35.116059 35.116059 0 0 1 13.103007-48.088036zM378.938964 882.356494a35.116059 35.116059 0 1 1-35.116059-35.116059 35.116059 35.116059 0 0 1 35.116059 35.116059zM378.938964 429.385541a35.116059 35.116059 0 1 1-35.116059-35.116059 35.116059 35.116059 0 0 1 35.116059 35.116059zM261.0119 442.095457a35.116059 35.116059 0 1 1-47.957006-13.103007 35.116059 35.116059 0 0 1 47.957006 13.103007zM487.431862 834.399488a35.116059 35.116059 0 1 1-47.957006-13.103007 35.247089 35.247089 0 0 1 47.957006 13.103007zM165.228919 512.196545a35.116059 35.116059 0 1 1-47.957006 13.103007 35.116059 35.116059 0 0 1 47.957006-13.103007zM557.532949 738.616507a35.116059 35.116059 0 1 1-47.957005 13.103007 35.247089 35.247089 0 0 1 47.957005-13.103007zM117.927063 620.689443a35.116059 35.116059 0 1 1-35.116059 35.116059A35.247089 35.247089 0 0 1 117.927063 620.689443zM570.242866 620.689443a35.116059 35.116059 0 1 1-34.985029 35.116059 35.247089 35.247089 0 0 1 34.985029-35.116059zM130.11286 738.747537A34.985029 34.985029 0 1 1 117.927063 786.180422a35.116059 35.116059 0 0 1 12.185797-47.432885zM522.416891 512.196545a35.116059 35.116059 0 1 1-13.103007 47.957006 35.116059 35.116059 0 0 1 13.103007-47.957006zM200.213948 834.399488a34.985029 34.985029 0 1 1 13.103007 48.088036 35.116059 35.116059 0 0 1-13.103007-48.088036zM426.633909 442.095457a35.116059 35.116059 0 1 1 13.103007 47.957006 35.247089 35.247089 0 0 1-13.103007-47.957006z" fill="#FFFFFF" p-id="10509"></path><path d="M814.351887 122.644146a71.804479 71.804479 0 1 1 101.548305 0 71.804479 71.804479 0 0 1-101.548305 0z" fill="#122C3D" p-id="10510"></path><path d="M793.518106 72.983749L144.133077 287.348944h131.816251L806.096993 112.55483a71.542418 71.542418 0 0 1-12.578887-39.571081z" fill="#122C3D" p-id="10511"></path><path d="M337.402431 267.170313H204.93103l-61.453103 20.178631h132.471401l61.453103-20.178631zM769.932694 80.845553a95.651951 95.651951 0 0 0 13.103007 39.309022l23.454382-7.730775a71.542418 71.542418 0 0 1-13.103007-39.309021z" p-id="10512"></path><path d="M271.625336 574.435829a35.116059 35.116059 0 1 1-53.460269 8.910044 34.722969 34.722969 0 0 1 9.303135-10.613435l-56.08087-55.94984a35.116059 35.116059 0 0 1-41.274472 56.2119 31.447217 31.447217 0 0 1-6.158413-4.586053l86.741906 86.872937h98.403583a34.985029 34.985029 0 0 1 15.461548-29.088676l-52.412028-52.412028zM253.019066 432.399232a22.668202 22.668202 0 0 1 3.668842 3.406782zM170.339091 515.996417z m397.938324 6.420474c0 0.91721 1.310301 1.703391 1.834421 2.620601a35.116059 35.116059 0 1 1-47.957006-13.103007 34.591939 34.591939 0 0 1 37.474601 1.703391l-73.50787-73.6389A34.985029 34.985029 0 1 1 422.178887 458.605246l-52.412028-52.412028a34.985029 34.985029 0 0 1-26.206014 58.963532 34.853999 34.853999 0 0 1-23.585413-9.303135l111.24453 111.37556a35.116059 35.116059 0 1 1-11.923737 5.241202l-48.743186-48.743186a35.116059 35.116059 0 1 1-37.4746-10.744465l-76.259501-76.521562a30.005886 30.005886 0 0 1 4.192962 5.634293 35.116059 35.116059 0 0 1-55.55675 41.929623l136.271274 136.926424h2.096481a35.247089 35.247089 0 0 1 35.116059 35.116058h156.318873a35.116059 35.116059 0 1 1 70.101088 0h96.438132zM152.387972 655.805502h14.151247L144.133077 632.61318a34.460909 34.460909 0 0 1 8.254895 23.192322z m-13.103007-26.206014h0.78618l-0.13103-0.65515z" fill="#84B94B" p-id="10513"></path><path d="M1044.309661 1023.34485h1.441331L1048.240563 1022.034549a19.13039 19.13039 0 0 0 8.910045-11.006526L701.797057 655.805502H605.358925a35.116059 35.116059 0 1 1-70.101088 0H378.938964a35.116059 35.116059 0 0 1-70.232118 0h-98.403583l23.454383 23.454383a34.985029 34.985029 0 1 1-15.592579 49.136276 34.198848 34.198848 0 0 1-3.799872-24.895713l-47.825976-47.694946h-14.151247a34.985029 34.985029 0 0 1-58.963532 26.206014l52.412028 52.412028A34.985029 34.985029 0 1 1 124.478567 795.352527l227.992322 228.647473h690.397441zM260.88087 869.515547a34.985029 34.985029 0 1 1-13.103007-47.957006 34.985029 34.985029 0 0 1 13.103007 47.957006zM343.822905 917.210493a35.116059 35.116059 0 1 1 35.116059-35.116059A35.116059 35.116059 0 0 1 343.822905 917.210493z m0-116.485733a35.116059 35.116059 0 1 1 35.116059-35.116059 35.116059 35.116059 0 0 1-35.116059 35.378119z m65.515035-107.706718a35.116059 35.116059 0 1 1 13.103007 47.957006 35.116059 35.116059 0 0 1-13.758157-47.694946z m65.515035 189.207422a35.116059 35.116059 0 1 1 13.103007-48.088036 35.116059 35.116059 0 0 1-13.365067 48.350096zM570.373896 786.180422a35.116059 35.116059 0 1 1-13.103007-48.088036 34.985029 34.985029 0 0 1 13.103007 48.088036z" fill="#69962F" p-id="10514"></path><path d="M747.657582 825.620473h228.254382v77.307742H747.657582zM747.657582 695.638644h228.254382v77.307741H747.657582zM747.657582 408.81382h228.254382v77.307741H747.657582z" fill="#122C3D" p-id="10515"></path></svg>