<svg t="1573102836031" class="icon" viewBox="0 0 1024 1024" version="1.1" xmlns="http://www.w3.org/2000/svg" p-id="11142" width="200" height="200"><path d="M959.047781 511.856343A447.040269 447.040269 0 1 1 512.14368 64.952241a446.904101 446.904101 0 0 1 446.904101 446.904102z" fill="#F2F4F9" p-id="11143"></path><path d="M512.14368 0a511.992511 511.992511 0 1 0 511.856342 511.992511A511.856343 511.856343 0 0 0 512.14368 0z m0 958.896612A447.040269 447.040269 0 1 1 959.047781 511.992511 447.040269 447.040269 0 0 1 512.14368 958.896612z" fill="#FFFFFF" p-id="11144"></path><path d="M480.00798 205.069341h64.135232l-31.999532-60.186354-32.1357 60.186354zM544.143212 818.779513h-64.135232l32.1357 60.186353 31.999532-60.186353zM818.930682 479.856811v64.135232l60.186353-31.999532-60.186353-32.1357zM205.22051 543.992043v-64.135232l-60.186354 32.1357 60.186354 31.999532zM637.554611 511.992511a125.5471 125.5471 0 1 1-125.410931-125.5471 125.410931 125.410931 0 0 1 125.410931 125.5471z" fill="#DFE2E8" p-id="11145"></path><path d="M408.655832 511.992511a98.449624 98.449624 0 0 1 1.634019-15.659346L292.232003 857.859792l280.642703-262.53233a102.126166 102.126166 0 0 1-60.731026 20.016728A103.35168 103.35168 0 0 1 408.655832 511.992511z" fill="#98D24D" p-id="11146"></path><path d="M731.919188 166.669902l-275.740647 258.71962A102.398502 102.398502 0 0 1 512.14368 408.504663a103.487848 103.487848 0 0 1 103.487848 103.487848 97.087942 97.087942 0 0 1-2.042524 19.063551z" fill="#EF5952" p-id="11147"></path><path d="M615.631528 511.992511a103.487848 103.487848 0 1 1-103.487848-103.487848 103.487848 103.487848 0 0 1 103.487848 103.487848z" fill="#FFFFFF" p-id="11148"></path><path d="M626.524985 489.388586A117.10467 117.10467 0 0 0 512.14368 394.887841a120.236539 120.236539 0 0 0-27.233644 3.404205l-28.731495 27.233644A102.398502 102.398502 0 0 1 512.14368 408.504663a103.487848 103.487848 0 0 1 103.487848 103.487848 97.087942 97.087942 0 0 1-2.042524 19.063551z" fill="#D33333" p-id="11149"></path><path d="M408.655832 511.992511a98.449624 98.449624 0 0 1 1.634019-15.659346l-12.935981 39.488784a117.240838 117.240838 0 0 0 114.78981 93.4114 115.879156 115.879156 0 0 0 28.595326-3.948878l32.1357-29.957009a102.126166 102.126166 0 0 1-60.731026 20.016728A103.35168 103.35168 0 0 1 408.655832 511.992511z" fill="#83BA36" p-id="11150"></path><path d="M308.163685 808.430728l101.989997-311.961394A112.47495 112.47495 0 0 1 415.464243 476.588773L286.104433 828.038952zM714.761993 219.367004L613.589004 531.056062a1.770187 1.770187 0 0 0 0-0.81701 108.934577 108.934577 0 0 1-4.629719 16.476355l127.04495-345.731113z" fill="#DFE2E8" p-id="11151"></path><path d="M512.14368 64.952241a447.040269 447.040269 0 1 0 446.904101 446.904102A447.040269 447.040269 0 0 0 512.14368 64.952241z m0 886.455119a425.117186 425.117186 0 1 1 425.117186-425.117186A425.117186 425.117186 0 0 1 512.14368 951.40736z" fill="#DFE2E8" p-id="11152"></path></svg>