<svg t="1573102817130" class="icon" viewBox="0 0 1024 1024" version="1.1" xmlns="http://www.w3.org/2000/svg" p-id="11017" width="200" height="200"><path d="M161.050791 1024l16.812663-7.015356 317.142452-132.203165 16.933617-7.015356 16.812662 7.015356 317.142452 132.203165 16.933617 7.015356V121.07536H161.050791v902.92464z" fill="#98D24D" p-id="11018"></path><path d="M558.990787 414.389794l99.545476 16.691708-69.790692 72.935507 14.756437 99.787385-90.836759-43.906449-90.352941 44.995039 13.667848-100.029294-70.637373-72.088826 99.303567-17.901252 46.567446-89.50626 47.776991 89.022442z" fill="#FFFFFF" p-id="11019"></path><path d="M844.443185 0h-665.249233A18.38507 18.38507 0 0 0 161.050791 18.264115V120.954406h701.535554V18.264115A18.38507 18.38507 0 0 0 844.443185 0z" fill="#122C3D" p-id="11020"></path><path d="M528.752185 856.115285l-16.812662-7.015356-16.933617 7.015356L177.863454 988.439405 161.050791 995.45476v28.54524l16.812663-7.015356 317.142452-132.203165 16.933617-7.015356 16.812662 7.015356 317.142452 132.203165 16.933617 7.015356V995.45476l-16.933617-7.015355L528.752185 856.115285z" fill="#78A82C" p-id="11021"></path><path d="M658.536263 431.081502l-69.790692 72.572644 14.756437 99.787385-90.836759-43.906449L422.312308 604.772029 826.300024 1008.759745l19.715568 8.224899 16.933617 7.015356V635.373494zM608.582093 423.340421l-96.763525-97.973069 47.776991 89.022442z" fill="#78A82C" p-id="11022"></path></svg>