<svg t="1573102564530" class="icon" viewBox="0 0 1031 1024" version="1.1" xmlns="http://www.w3.org/2000/svg" p-id="10374" width="200" height="200"><path d="M98.580188 512.063476a421.482558 421.482558 0 0 1 421.482558-421.482558V0.06373a511.999746 511.999746 0 1 0 0 1023.87254v-90.517188a421.482558 421.482558 0 0 1-421.482558-421.355606z" fill="#F2F4F9" p-id="10375"></path><path d="M520.062746 0.06373v90.517188a421.482558 421.482558 0 0 1 0 842.838164v90.517188a511.999746 511.999746 0 0 0 0-1023.87254z" fill="#E1E4EA" p-id="10376"></path><path d="M680.911662 512.063476a161.102821 161.102821 0 0 0-160.848916-161.102821V672.912392A160.975869 160.975869 0 0 0 680.911662 512.063476z" fill="#122C3D" p-id="10377"></path><path d="M358.959925 512.063476A161.102821 161.102821 0 0 0 520.062746 672.912392V350.960655a161.102821 161.102821 0 0 0-161.102821 161.102821z" fill="#2A4251" p-id="10378"></path><path d="M550.27746 45.893611a30.214714 30.214714 0 1 1-30.214714-30.214714 30.214714 30.214714 0 0 1 30.214714 30.214714zM550.27746 979.12201a30.214714 30.214714 0 1 1-30.214714-30.214714 30.341666 30.341666 0 0 1 30.214714 30.214714zM987.248232 542.151237a30.214714 30.214714 0 1 1 30.214714-30.087761 30.214714 30.214714 0 0 1-30.214714 30.087761zM50.846019 542.151237a30.214714 30.214714 0 1 1 30.214713-30.087761 30.087761 30.087761 0 0 1-30.214713 30.087761z" fill="#B2B8C1" p-id="10379"></path><path d="M919.836414 512.063476A400.154525 400.154525 0 0 0 520.062746 112.289809v206.044034a193.729634 193.729634 0 1 1 0 387.459267v205.917081a400.281478 400.281478 0 0 0 399.773668-399.646715z" fill="#83BA36" p-id="10380"></path><path d="M520.062746 705.79311a193.729634 193.729634 0 0 1 0-387.459267V112.289809a399.773667 399.773667 0 1 0 0 799.80124V705.79311z" fill="#98D24D" p-id="10381"></path><path d="M520.062746 90.580918v21.708891a399.773667 399.773667 0 1 1 0 799.80124v21.708891a421.482558 421.482558 0 0 0 0-842.838164z" fill="#122C3D" p-id="10382"></path><path d="M120.289079 512.063476A400.154525 400.154525 0 0 1 520.062746 112.289809V90.580918a421.482558 421.482558 0 1 0 0 842.838164v-21.708891A400.154525 400.154525 0 0 1 120.289079 512.063476z" fill="#2A4251" p-id="10383"></path><path d="M713.79238 512.063476a193.983539 193.983539 0 0 0-193.729634-193.729633v32.626812a161.102821 161.102821 0 0 1 0 322.07869v32.753765a193.983539 193.983539 0 0 0 193.729634-193.729634z" p-id="10384"></path><path d="M326.333113 512.063476a193.983539 193.983539 0 0 0 193.729633 193.729634V672.912392a161.102821 161.102821 0 1 1 0-322.078689v-32.49986a193.856586 193.856586 0 0 0-193.729633 193.729633z" fill="#122C3D" p-id="10385"></path><path d="M668.216404 386.761282a193.475729 193.475729 0 0 1-148.153658 319.031828 192.460108 192.460108 0 0 1-117.558087-40.117015l229.02245 229.911119a401.170146 401.170146 0 0 0 272.31328-272.567185z" fill="#78A82C" p-id="10386"></path></svg>